#!OML:ASF F:\VICON\USERDATA\INSTALL\rory3\rory3.ASF
:FULLY-SPECIFIED
:DEGREES
149
root 6.63074 15.8988 -35.4426 19.3024 -18.6356 -0.160537
lowerback -15.6092 1.58804 -3.6025
upperback -5.90749 2.63376 -1.74247
thorax 2.39177 1.30951 0.658443
lowerneck -13.968 -2.86321 -2.48538
upperneck 41.6365 -5.99967 4.61268
head 18.1559 -2.29776 1.43585
rclavicle -4.74474e-014 1.66979e-014
rhumerus -38.9159 -9.11319 -77.9141
rradius 13.5945
rwrist 8.27924
rhand 2.26905 13.3455
rfingers 7.12502
rthumb 27.7619 -14.6245
lclavicle -4.74474e-014 1.66979e-014
lhumerus -42.0211 12.2207 72.5501
lradius 27.9851
lwrist -1.58361
lhand 1.00242 17.6871
lfingers 7.12502
lthumb 26.5502 45.8464
rfemur -29.6006 -19.3898 28.8565
rtibia 60.7886
rfoot 33.4737 -29.3463
rtoes -5.12722
lfemur -38.4617 0.113028 -30.9232
ltibia 43.5447
lfoot -39.9984 27.3739
ltoes 5.49091
150
root 6.62901 15.8968 -35.4486 19.2907 -18.8012 -0.121067
lowerback -16.0561 1.68965 -3.61574
upperback -5.58593 2.80755 -1.79725
thorax 2.96501 1.38252 0.661533
lowerneck -14.2716 -2.8736 -2.28695
upperneck 41.5869 -6.05103 4.56336
head 18.2007 -2.28515 1.3623
rclavicle 1.0548e-014 2.38542e-014
rhumerus -38.2836 -9.89033 -77.6978
rradius 13.3189
rwrist 8.91528
rhand 2.06281 13.4962
rfingers 7.12502
rthumb 27.5647 -14.5054
lclavicle 1.0548e-014 2.38542e-014
lhumerus -41.3091 12.3235 72.6076
lradius 27.865
lwrist -1.5797
lhand 1.09249 17.7742
lfingers 7.12502
lthumb 26.6364 45.9204
rfemur -29.6706 -19.2483 28.8177
rtibia 60.8576
rfoot 32.3723 -30.7661
rtoes -0.144212
lfemur -38.4325 -0.267381 -30.8823
ltibia 43.4963
lfoot -40.4995 27.2833
ltoes 6.53006
151
root 6.62866 15.8973 -35.4661 19.4463 -18.4333 -0.137161
lowerback -15.3233 1.59106 -3.5701
upperback -6.36999 2.59733 -1.6883
thorax 1.75189 1.30613 0.670577
lowerneck -12.952 -2.87051 -2.67207
upperneck 41.6638 -6.02823 4.75667
head 17.916 -2.3417 1.54593
rclavicle 3.38446e-014 -1.66979e-014
rhumerus -39.4854 -9.09341 -77.7385
rradius 13.596
rwrist 8.30277
rhand 1.90019 13.1524
rfingers 7.12502
rthumb 27.4091 -14.8739
lclavicle 3.38446e-014 -1.66979e-014
lhumerus -42.4648 11.8853 72.5209
lradius 28.0369
lwrist -1.26728
lhand 1.08113 18.0898
lfingers 7.12502
lthumb 26.6255 46.2377
rfemur -30.003 -19.5219 29.1538
rtibia 60.9322
rfoot 31.8687 -31.4643
rtoes 3.16191
lfemur -38.6813 -0.169354 -30.8433
ltibia 43.5072
lfoot -40.0297 27.1559
ltoes 6.09527
152
root 6.63263 15.8994 -35.4632 19.3748 -18.3194 0.0208772
lowerback -15.5112 1.48623 -3.74371
upperback -5.71117 2.52198 -1.6303
thorax 2.53895 1.25307 0.83728
lowerneck -14.7576 -2.91503 -2.44908
upperneck 41.7095 -6.05985 4.54507
head 18.4145 -2.3046 1.37748
rclavicle 4.63417e-015 1.74931e-014
rhumerus -38.0679 -8.77408 -78.1528
rradius 13.6918
rwrist 7.79278
rhand 1.87115 12.6525
rfingers 7.12502
rthumb 27.3814 -15.3783
lclavicle 4.63417e-015 1.74931e-014
lhumerus -41.0403 12.5157 72.8068
lradius 27.8506
lwrist -1.31364
lhand 0.786195 17.9934
lfingers 7.12502
lthumb 26.3432 46.1837
rfemur -30.0652 -19.9797 29.0763
rtibia 60.999
rfoot 32.524 -30.7631
rtoes 3.8837
lfemur -38.6068 -0.242203 -30.9976
ltibia 43.4707
lfoot -39.8149 27.3279
ltoes 5.56124
153
root 6.63473 15.8973 -35.4615 19.33 -18.2741 0.0897559
lowerback -15.2333 1.44378 -3.7084
upperback -6.13016 2.42614 -1.56658
thorax 1.95144 1.21947 0.850203
lowerneck -13.8542 -2.86457 -2.63123
upperneck 41.8124 -5.94302 4.54534
head 18.2295 -2.30778 1.44695
rclavicle 1.12686e-014 -7.15625e-015
rhumerus -38.7609 -8.50629 -77.9683
rradius 13.7272
rwrist 7.87074
rhand 1.85137 12.3904
rfingers 7.12502
rthumb 27.3624 -15.6434
lclavicle 1.12686e-014 -7.15625e-015
lhumerus -41.9029 12.5348 72.6169
lradius 27.9213
lwrist -1.415
lhand 0.499571 17.787
lfingers 7.12502
lthumb 26.0688 46.0181
rfemur -30.0759 -20.2171 29.0457
rtibia 61.0508
rfoot 32.322 -30.9996
rtoes 6.6058
lfemur -38.5764 -0.21783 -31.0888
ltibia 43.4894
lfoot -39.674 27.3967
ltoes 5.09334
154
root 6.63394 15.8958 -35.4666 19.3128 -18.3806 0.144122
lowerback -15.2052 1.5354 -3.76947
upperback -6.15815 2.55391 -1.59661
thorax 1.90026 1.28481 0.872033
lowerneck -13.7884 -3.00125 -2.61141
upperneck 41.873 -6.18214 4.56314
head 18.2649 -2.39881 1.40787
rclavicle -2.16831e-014 -1.74931e-014
rhumerus -38.6937 -9.1182 -77.6155
rradius 13.5464
rwrist 8.31822
rhand 1.89245 12.2021
rfingers 7.12502
rthumb 27.4017 -15.8254
lclavicle -2.16831e-014 -1.74931e-014
lhumerus -41.7779 12.6095 72.5175
lradius 27.6827
lwrist -1.65019
lhand 0.632749 17.3803
lfingers 7.12502
lthumb 26.1963 45.5926
rfemur -30.1392 -20.1734 29.0277
rtibia 61.0752
rfoot 31.8875 -31.6901
rtoes 10.0213
lfemur -38.6881 -0.0470898 -31.2014
ltibia 43.6636
lfoot -39.7317 27.3075
ltoes 5.39904
155
root 6.6349 15.8942 -35.4742 19.3226 -18.4563 0.110373
lowerback -15.1372 1.62542 -3.73593
upperback -6.20224 2.6628 -1.59449
thorax 1.81481 1.34072 0.869421
lowerneck -13.8005 -3.0769 -2.46306
upperneck 41.9759 -6.31693 4.45828
head 18.3268 -2.44153 1.30732
rclavicle -5.60821e-014 -1.19271e-014
rhumerus -38.6983 -9.63046 -77.3148
rradius 13.4676
rwrist 8.70104
rhand 1.93314 12.5327
rfingers 7.12502
rthumb 27.4406 -15.4886
lclavicle -5.60821e-014 -1.19271e-014
lhumerus -41.6582 12.6699 72.4312
lradius 27.3245
lwrist -1.8302
lhand 0.540611 16.8043
lfingers 7.12502
lthumb 26.1081 45.0297
rfemur -30.1772 -20.1068 29.096
rtibia 61.0766
rfoot 31.2596 -32.4866
rtoes 13.6593
lfemur -38.819 -0.0878604 -31.1782
ltibia 43.8943
lfoot -39.9331 27.2675
ltoes 5.85918
156
root 6.6325 15.9154 -35.4775 19.2553 -18.4449 0.134478
lowerback -15.3363 1.47127 -3.61666
upperback -6.21578 2.44597 -1.45008
thorax 1.91394 1.23035 0.925127
lowerneck -13.2783 -2.84432 -2.54803
upperneck 41.9092 -5.86773 4.32789
head 18.1099 -2.30614 1.35309
rclavicle 2.36208e-014 6.75868e-015
rhumerus -38.636 -9.20444 -77.2877
rradius 13.3279
rwrist 8.78178
rhand 2.02311 13.0503
rfingers 7.12502
rthumb 27.5267 -14.9574
lclavicle 2.36208e-014 6.75868e-015
lhumerus -42.0441 13.3053 72.1099
lradius 27.1443
lwrist -1.99743
lhand 0.505704 16.3746
lfingers 7.12502
lthumb 26.0747 44.6049
rfemur -30.0416 -20.1463 29.0601
rtibia 60.9886
rfoot 31.5605 -32.3566
rtoes 15.0873
lfemur -38.5583 2.24772 -32.3827
ltibia 44.2469
lfoot -37.1351 28.5111
ltoes -2.79847
157
root 6.63591 15.9179 -35.4736 19.2293 -18.4973 0.164732
lowerback -15.5635 1.43195 -3.54817
upperback -5.90505 2.40559 -1.38273
thorax 2.36445 1.19969 0.964531
lowerneck -14.1271 -2.75531 -2.35375
upperneck 42.0377 -5.68404 4.08116
head 18.3858 -2.21516 1.22764
rclavicle -7.92964e-015 -1.31198e-014
rhumerus -37.8909 -9.61301 -77.0798
rradius 12.9929
rwrist 9.30973
rhand 1.90971 13.4867
rfingers 7.12502
rthumb 27.4182 -14.5382
lclavicle -7.92964e-015 -1.31198e-014
lhumerus -41.4399 13.9269 72.0075
lradius 26.5839
lwrist -2.40531
lhand 0.487613 15.487
lfingers 7.12502
lthumb 26.0573 43.7198
rfemur -29.9707 -20.2033 28.9797
rtibia 60.9788
rfoot 32.3234 -31.6965
rtoes 15.4403
lfemur -38.6011 2.06914 -32.3833
ltibia 44.4406
lfoot -37.4086 28.5432
ltoes -2.35241
158
root 6.63737 15.9213 -35.4866 19.1885 -18.3099 0.390816
lowerback -15.5138 1.40384 -3.70254
upperback -5.86336 2.39378 -1.45338
thorax 2.37859 1.19443 0.974584
lowerneck -14.028 -2.80464 -2.34791
upperneck 41.8689 -5.80711 4.21552
head 18.2709 -2.24682 1.26522
rclavicle -1.43622e-014 -7.95139e-016
rhumerus -37.7879 -10.1137 -76.8654
rradius 12.8754
rwrist 9.63388
rhand 1.77592 13.7591
rfingers 7.12502
rthumb 27.2903 -14.286
lclavicle -1.43622e-014 -7.95139e-016
lhumerus -41.1152 13.5974 72.2384
lradius 26.5867
lwrist -2.4166
lhand 0.515242 15.6759
lfingers 7.12502
lthumb 26.0838 43.9048
rfemur -30.029 -20.3884 28.8596
rtibia 60.9931
rfoot 31.8394 -32.3547
rtoes 18.5345
lfemur -38.7152 2.40807 -32.6748
ltibia 44.5509
lfoot -37.1827 28.0303
ltoes -2.20616
159
root 6.63922 15.917 -35.496 19.2224 -18.1974 0.392685
lowerback -15.4454 1.4223 -3.67942
upperback -5.90407 2.41001 -1.44489
thorax 2.29934 1.20442 0.970182
lowerneck -14.1215 -2.82374 -2.21135
upperneck 41.9904 -5.86455 4.1493
head 18.3646 -2.25303 1.19922
rclavicle 2.30652e-014 2.70347e-014
rhumerus -37.7856 -10.1858 -76.8492
rradius 12.873
rwrist 9.51601
rhand 1.72321 13.6547
rfingers 7.12502
rthumb 27.2398 -14.3984
lclavicle 2.30652e-014 2.70347e-014
lhumerus -41.0229 13.1002 72.6375
lradius 26.7912
lwrist -2.19894
lhand 0.457815 16.6071
lfingers 7.12502
lthumb 26.0288 44.8441
rfemur -30.0985 -20.445 28.9184
rtibia 61.0885
rfoot 32.0156 -32.238
rtoes 19.8817
lfemur -38.7481 2.39899 -32.6714
ltibia 44.4692
lfoot -37.0879 27.89
ltoes -1.83826
160
root 6.64403 15.9134 -35.5016 19.1687 -18.083 0.360806
lowerback -15.4165 1.32283 -3.54163
upperback -6.09318 2.24465 -1.30864
thorax 2.09139 1.12692 1.00319
lowerneck -13.4764 -2.69889 -2.34523
upperneck 42.0744 -5.60897 4.07823
head 18.2249 -2.1962 1.24892
rclavicle 5.05845e-014 -3.33958e-014
rhumerus -38.1639 -9.88884 -76.6969
rradius 12.9158
rwrist 9.60744
rhand 1.74122 13.5181
rfingers 7.12502
rthumb 27.2571 -14.5322
lclavicle 5.05845e-014 -3.33958e-014
lhumerus -41.5798 13.0958 72.6909
lradius 26.9078
lwrist -2.12138
lhand 0.450056 17.4108
lfingers 7.12502
lthumb 26.0214 45.6489
rfemur -30.0242 -20.4939 28.9526
rtibia 61.186
rfoot 31.4141 -32.8386
rtoes 22.8199
lfemur -38.6711 1.99579 -32.4347
ltibia 44.278
lfoot -37.2175 27.8087
ltoes -0.68362
161
root 6.64615 15.9046 -35.5113 19.3096 -18.2857 0.235254
lowerback -15.3297 1.4121 -3.54432
upperback -6.0401 2.35889 -1.2379
thorax 2.09341 1.18445 1.09581
lowerneck -13.9113 -2.80862 -2.37064
upperneck 42.1284 -5.77924 4.0886
head 18.3891 -2.25721 1.22084
rclavicle -1.91237e-014 -1.43125e-014
rhumerus -37.8799 -10.0321 -76.6888
rradius 12.9904
rwrist 9.63016
rhand 1.76941 13.1944
rfingers 7.12502
rthumb 27.284 -14.8516
lclavicle -1.91237e-014 -1.43125e-014
lhumerus -41.2761 13.0259 72.8906
lradius 26.9032
lwrist -2.13869
lhand 0.57145 17.6815
lfingers 7.12502
lthumb 26.1376 45.9024
rfemur -30.2605 -20.2793 29.096
rtibia 61.3431
rfoot 31.5072 -32.9029
rtoes 24.4531
lfemur -38.9117 1.39515 -31.9329
ltibia 44.0617
lfoot -37.9837 27.5307
ltoes 1.72955
162
root 6.65029 15.902 -35.5182 19.3945 -18.112 0.228831
lowerback -15.3048 1.37921 -3.49389
upperback -6.06835 2.3063 -1.2288
thorax 2.05449 1.15885 1.06707
lowerneck -13.8961 -2.8491 -2.19704
upperneck 42.162 -5.87848 4.01986
head 18.4003 -2.27815 1.13837
rclavicle 1.17935e-014 -1.51076e-014
rhumerus -37.8072 -10.1725 -76.741
rradius 13.0525
rwrist 9.73558
rhand 1.75029 12.652
rfingers 7.12502
rthumb 27.2657 -15.397
lclavicle 1.17935e-014 -1.51076e-014
lhumerus -41.2443 12.6501 73.1341
lradius 27.059
lwrist -1.97092
lhand 0.426495 17.9999
lfingers 7.12502
lthumb 25.9988 46.2414
rfemur -30.4425 -20.5987 29.2219
rtibia 61.4375
rfoot 32.0742 -32.4638
rtoes 24.9144
lfemur -39.0393 0.399988 -31.4403
ltibia 43.817
lfoot -38.753 27.2373
ltoes 4.25115
